<svg id="Layer_1" data-name="Layer 1" xmlns="http://www.w3.org/2000/svg" viewBox="0 0 200.46 576.95"><defs><style>.cls-1{fill:#f5f5f5;}</style></defs><title>brisk-vert</title><path class="cls-1" d="M340.64,73.25v.55c9.22,6,22.51,17.36,22.51,41.77,0,31.74-24.41,60-74.32,60-39.61,0-77.59-17.9-77.59-60.76,0-15.74,5.7-32.56,22-41.78v-.54H215V35.28H373.73a38,38,0,0,1,38,38H340.64Zm-10.31,30.93c0-26-23.33-32.55-46.39-32.55-21.43,0-41.5,9.49-41.5,33.63,0,24.42,26.58,31.2,43.67,31.2C308.9,136.46,330.33,128.32,330.33,104.18Z" transform="translate(-211.24 -35.28)"/><path class="cls-1" d="M363.15,188.27v36.34H334.4v.55c14.65,7.86,28.75,16.54,28.75,39.6a67.11,67.11,0,0,1-.54,7.33H324.09a71.32,71.32,0,0,0,.54-10.85c0-29.57-18.44-35-34.45-35H215v-38Z" transform="translate(-211.24 -35.28)"/><path class="cls-1" d="M376.44,303.33v-2.81A17.58,17.58,0,0,1,394,282.93h.1a17.58,17.58,0,0,1,17.59,17.59v2.81a17.58,17.58,0,0,1-17.59,17.58H394A17.58,17.58,0,0,1,376.44,303.33Zm-13.29,17.58H215v-38H363.15Z" transform="translate(-211.24 -35.28)"/><path class="cls-1" d="M315.41,424c9.22-1.63,19-4.88,19-25.5s-7.87-23.33-14.11-23.33c-22.78,0-6.24,90.33-59.4,90.33-42,0-49.65-40.69-49.65-63.2,0-32.82,11.4-68.36,49.92-69.45v39.07C249,371.91,240,379.5,240,403.37c0,19.53,9.49,24.15,14.92,24.15,24.14,0,6-89.52,60-89.52,21.15,0,48.28,13.29,48.28,58.32,0,28.21-7,61.85-47.74,64.83Z" transform="translate(-211.24 -35.28)"/><path class="cls-1" d="M215,514.59v-38H373.73a38,38,0,0,1,38,38H304.56l58.59,51v46.66L303.47,558,215,610.34V564.77l61.85-34.45-16.28-15.73Z" transform="translate(-211.24 -35.28)"/></svg>