<svg id="Layer_1" data-name="Layer 1" xmlns="http://www.w3.org/2000/svg" viewBox="0 0 576.95 200.46"><defs><style>.cls-1{fill:#f5f5f5;}</style></defs><title>brisk-hor</title><path class="cls-1" d="M61,294.59h.54c6-9.22,17.36-22.51,41.77-22.51,31.74,0,60,24.41,60,74.32,0,39.61-17.9,77.58-60.76,77.58-15.73,0-32.55-5.69-41.78-22h-.54v18.18H23V261.5a38,38,0,0,1,38-38h0ZM91.9,304.9c-26,0-32.55,23.33-32.55,46.39,0,21.43,9.49,41.5,33.63,41.5,24.42,0,31.2-26.58,31.2-43.67C124.18,326.33,116,304.9,91.9,304.9Z" transform="translate(-23 -223.52)"/><path class="cls-1" d="M176,272.08h36.35v28.75h.54c7.87-14.65,16.55-28.75,39.6-28.75a66.74,66.74,0,0,1,7.33.54v38.52A71.32,71.32,0,0,0,249,310.6c-29.57,0-35,18.44-35,34.45v75.14H176Z" transform="translate(-23 -223.52)"/><path class="cls-1" d="M291.05,258.79h-2.81a17.59,17.59,0,0,1-17.58-17.59v-.1a17.58,17.58,0,0,1,17.58-17.58h2.81a17.58,17.58,0,0,1,17.58,17.58v.1A17.59,17.59,0,0,1,291.05,258.79Zm17.58,13.29V420.19h-38V272.08Z" transform="translate(-23 -223.52)"/><path class="cls-1" d="M411.71,319.82c-1.63-9.22-4.88-19-25.5-19s-23.32,7.87-23.32,14.11c0,22.78,90.32,6.24,90.32,59.4,0,42.05-40.68,49.64-63.2,49.64-32.82,0-68.36-11.39-69.44-49.91h39.06c0,12.21,7.6,21.16,31.47,21.16,19.53,0,24.14-9.49,24.14-14.92,0-24.14-89.52-6-89.52-59.95,0-21.16,13.29-48.28,58.32-48.28,28.21,0,61.85,7.05,64.83,47.74Z" transform="translate(-23 -223.52)"/><path class="cls-1" d="M502.31,420.19h-38V261.5a38,38,0,0,1,38-38h0V330.67l51-58.59H600l-54.23,59.68,52.35,88.43H552.5l-34.45-61.85-15.74,16.27Z" transform="translate(-23 -223.52)"/></svg>