<svg id="Layer_1" data-name="Layer 1" xmlns="http://www.w3.org/2000/svg" viewBox="0 0 373.65 227.36"><defs><style>.cls-1{fill:#f5f5f5;}</style></defs><title>chev</title><path class="cls-1" d="M305.93,372.19s122.5,121,131.5,130.5,21.25,8.92,29.66.67,11.59-11.58,19.67-19.5a20.17,20.17,0,0,0,0-28.83c-8.08-8.17-158.33-157.84-166.42-166.34s-20.75-8.5-29.16,0c0,0-158,158-166,166.19a20.82,20.82,0,0,0,0,29.25c8,8,11.37,11.53,19.4,19.41a21,21,0,0,0,29.18-.06C182.09,495.65,305.93,372.19,305.93,372.19Z" transform="translate(-119.18 -282.32)"/></svg>